<svg height="480pt" viewBox="0 0 480 480.00003" width="480pt" xmlns="http://www.w3.org/2000/svg"><path d="m189.902344 74.296875c-33.746094 5.820313-64.542969 22.863281-87.390625 48.375-2.941407 3.296875-2.652344 8.359375.644531 11.300781s8.355469 2.652344 11.300781-.644531c20.441407-22.8125 47.980469-38.058594 78.167969-43.265625 4.351562-.75 7.273438-4.886719 6.523438-9.242188-.75-4.355468-4.890626-7.277343-9.246094-6.523437zm0 0"/><path d="m91.664062 150.671875c-3.929687-2.023437-8.753906-.480469-10.777343 3.449219-5.898438 11.429687-10.3125 23.570312-13.144531 36.117187-.476563 2.078125-.105469 4.257813 1.03125 6.058594 1.132812 1.804687 2.941406 3.078125 5.019531 3.542969.578125.125 1.167969.191406 1.757812.191406 3.738281 0 6.980469-2.59375 7.800781-6.238281 2.527344-11.230469 6.480469-22.085938 11.761719-32.3125.980469-1.890625 1.167969-4.09375.523438-6.121094-.648438-2.027344-2.078125-3.714844-3.972657-4.6875zm0 0"/><path d="m477.855469 466.550781-104-112c-2.921875-3.140625-7.804688-3.417969-11.0625-.621093l-17.519531 15.015624-4.480469-3.359374c-8.046875-6.046876-12.785157-15.523438-12.792969-25.585938v-60c0-4.417969-3.582031-8-8-8h80c4.417969 0 8-3.582031 8-8 0-8.835938 7.164062-16 16-16 4.417969 0 8-3.582031 8-8v-16c0-4.417969-3.582031-8-8-8h-24.351562c-3.378907-83.273438-62.566407-153.757812-144-171.480469.207031-1.496093.324218-3.007812.351562-4.519531 0-22.089844-17.910156-40-40-40s-40 17.910156-40 40c.046875 1.511719.183594 3.023438.40625 4.519531-81.453125 17.703125-140.667969 88.191407-144.054688 171.480469h-24.351562c-4.417969 0-8 3.582031-8 8v16c0 4.417969 3.582031 8 8 8 8.835938 0 16 7.164062 16 16 0 4.417969 3.582031 8 8 8h80c-3.234375 0-6.152344 1.949219-7.390625 4.9375s-.550781 6.429688 1.734375 8.71875l155.121094 155.144531-10.679688 9.160157c-1.6875 1.449218-2.695312 3.539062-2.777344 5.761718-.082031 2.226563.761719 4.382813 2.335938 5.957032l16 16c1.503906 1.492187 3.539062 2.328124 5.65625 2.320312h200c3.183594 0 6.0625-1.886719 7.332031-4.804688 1.269531-2.917968.691407-6.3125-1.476562-8.644531zm-261.855469-450.550781c13.253906 0 24 10.746094 24 24 0 .527344 0 1.054688-.046875 1.601562-.5-.035156-1-.035156-1.496094 0-14.917969-1.839843-30.003906-1.839843-44.921875 0-.496094-.035156-.992187-.035156-1.488281 0-.046875-.546874-.046875-1.074218-.046875-1.601562 0-13.253906 10.746094-24 24-24zm-28.734375 42.511719c47.46875-8.242188 96.191406 4.289062 133.792969 34.417969 37.597656 30.125 60.453125 74.945312 62.757812 123.070312h-335.632812c3.535156-78.679688 61.441406-144.25 139.082031-157.488281zm-148.28125 197.488281c-2.933594-11.257812-11.726563-20.050781-22.984375-22.984375v-1.015625h400v1.015625c-11.257812 2.933594-20.050781 11.726563-22.984375 22.984375zm264.855469 16c-17.710938-.085938-33.351563 11.519531-38.398438 28.496094l-13.785156 46.070312-81.839844-63.015625c-9.820312-7.457031-21.804687-11.511719-34.136718-11.550781zm-168.160156 16c8.816406.027344 17.378906 2.925781 24.398437 8.257812l91.042969 70.078126c2.085937 1.605468 4.828125 2.082031 7.332031 1.277343 2.507813-.808593 4.453125-2.796875 5.210937-5.316406l17.136719-57.183594c3.03125-10.1875 12.414063-17.152343 23.039063-17.113281h8.160156v52c.015625 15.105469 7.125 29.324219 19.199219 38.398438l1.601562 1.21875-59.199219 50.695312-142.289062-142.3125zm139.632812 176-7.550781-7.558594 65.40625-56.058594 17.601562-15.101562 16.542969-14.175781 86.34375 92.894531zm0 0"/></svg>